<svg id="visual" viewBox="0 0 1400 150" width="1400" height="150" xmlns="http://www.w3.org/2000/svg" xmlns:xlink="http://www.w3.org/1999/xlink" version="1.1"><rect x="0" y="0" width="1400" height="150" fill="#ffffff"></rect><path d="M0 114L70 123L140 121L210 111L280 127L350 113L420 113L490 117L560 116L630 111L700 115L770 121L840 119L910 122L980 117L1050 128L1120 113L1190 119L1260 123L1330 125L1400 115L1400 151L1330 151L1260 151L1190 151L1120 151L1050 151L980 151L910 151L840 151L770 151L700 151L630 151L560 151L490 151L420 151L350 151L280 151L210 151L140 151L70 151L0 151Z" fill="#7209B7" stroke-linecap="square" stroke-linejoin="bevel"></path></svg>